<?xml version="1.0" encoding="UTF-8" standalone="no"?>
<svg
   xmlns:dc="http://purl.org/dc/elements/1.1/"
   xmlns:cc="http://creativecommons.org/ns#"
   xmlns:rdf="http://www.w3.org/1999/02/22-rdf-syntax-ns#"
   xmlns:svg="http://www.w3.org/2000/svg"
   xmlns="http://www.w3.org/2000/svg"
   xmlns:xlink="http://www.w3.org/1999/xlink"
   xmlns:sodipodi="http://sodipodi.sourceforge.net/DTD/sodipodi-0.dtd"
   xmlns:inkscape="http://www.inkscape.org/namespaces/inkscape"
   version="1.1"
   id="Ebene_1"
   x="0px"
   y="0px"
   width="56.554001"
   height="66.762001"
   viewBox="0 0 56.554001 66.762001"
   enable-background="new 0 0 57 67"
   xml:space="preserve"
   inkscape:version="0.48.5 r10040"
   sodipodi:docname="unnamed0.svg"><metadata
     id="metadata71"><rdf:RDF><cc:Work
         rdf:about=""><dc:format>image/svg+xml</dc:format><dc:type
           rdf:resource="http://purl.org/dc/dcmitype/StillImage" /></cc:Work></rdf:RDF></metadata><defs
     id="defs69"><linearGradient
       gradientTransform="translate(0.3203,-3091.7656)"
       y2="3145.5239"
       x2="27.5807"
       y1="3115.7266"
       x1="26.3398"
       gradientUnits="userSpaceOnUse"
       id="SVGID_1_"><stop
         id="stop6"
         style="stop-color:#FFAB4F"
         offset="0.2711" /><stop
         id="stop8"
         style="stop-color:#FFD28F"
         offset="1" /></linearGradient><radialGradient
       gradientUnits="userSpaceOnUse"
       gradientTransform="translate(0.3203,-3091.7656)"
       fy="3115.0024"
       fx="23.013901"
       r="23.424999"
       cy="3117.4922"
       cx="27.5835"
       id="face_x5F_white_1_"><stop
         id="stop13"
         style="stop-color:#FFD28F"
         offset="0" /><stop
         id="stop15"
         style="stop-color:#FFAB4F"
         offset="1" /></radialGradient><linearGradient
       gradientTransform="matrix(0.275,0,0,-0.2733,-1752.8849,-3350.4617)"
       y2="-12380.309"
       x2="6492.1294"
       y1="-12286.859"
       x1="6468.5"
       gradientUnits="userSpaceOnUse"
       id="face_highlight_1_"><stop
         id="stop19"
         style="stop-color:#FFFFFF;stop-opacity:0.24"
         offset="0" /><stop
         id="stop21"
         style="stop-color:#FFFFFF;stop-opacity:0.16"
         offset="1" /></linearGradient><radialGradient
       gradientUnits="userSpaceOnUse"
       gradientTransform="matrix(1,0,0,-1,0.04,66.1543)"
       r="32.400398"
       cy="11.9829"
       cx="15.2412"
       id="collar_x5F_body_1_"><stop
         id="stop26"
         style="stop-color:#FCB57A"
         offset="0" /><stop
         id="stop28"
         style="stop-color:#FF8C36"
         offset="1" /></radialGradient><radialGradient
       gradientUnits="userSpaceOnUse"
       gradientTransform="matrix(1,0,0,-1,0.04,66.1543)"
       r="9.2823"
       cy="17.957001"
       cx="31.580099"
       id="collar_x5F_r_1_"><stop
         id="stop32"
         style="stop-color:#FCB57A"
         offset="0" /><stop
         id="stop34"
         style="stop-color:#FF8C36"
         offset="1" /></radialGradient><radialGradient
       gradientUnits="userSpaceOnUse"
       gradientTransform="matrix(1,0,0,-1,0.04,66.1543)"
       r="9.2842999"
       cy="17.916"
       cx="19.2178"
       id="collar_x5F_l_1_"><stop
         id="stop38"
         style="stop-color:#FCB57A"
         offset="0" /><stop
         id="stop40"
         style="stop-color:#FF8C36"
         offset="1" /></radialGradient><linearGradient
       gradientTransform="matrix(0.9852,0,0,-0.9852,-34.4844,-3031.9851)"
       y2="-3134.0396"
       x2="31.5133"
       y1="-3134.0396"
       x1="95.906303"
       gradientUnits="userSpaceOnUse"
       id="body_1_"><stop
         id="stop44"
         style="stop-color:#49AD33"
         offset="0" /><stop
         id="stop46"
         style="stop-color:#C2DA92"
         offset="1" /></linearGradient><linearGradient
       gradientTransform="translate(0.3203,-3091.7656)"
       y2="3138.3994"
       x2="15.0673"
       y1="3138.3994"
       x1="41.087898"
       gradientUnits="userSpaceOnUse"
       id="turtleneck_1_"><stop
         id="stop50"
         style="stop-color:#49AD33"
         offset="0" /><stop
         id="stop52"
         style="stop-color:#C2DA92"
         offset="1" /></linearGradient><radialGradient
       gradientUnits="userSpaceOnUse"
       gradientTransform="matrix(0.9852,0,0,-0.9852,-34.4844,-3031.9851)"
       r="32.887699"
       cy="-3132.519"
       cx="50.5117"
       id="body_2_"><stop
         id="stop56"
         style="stop-color:#7ab3fc;stop-opacity:1;"
         offset="0" /><stop
         id="stop58"
         style="stop-color:#3668ff;stop-opacity:1;"
         offset="1" /></radialGradient><radialGradient
       gradientUnits="userSpaceOnUse"
       gradientTransform="translate(0.3203,-3091.7656)"
       r="13.5363"
       cy="3139.1426"
       cx="22.7432"
       id="turtleneck_2_"><stop
         id="stop62"
         style="stop-color:#7ac2fc;stop-opacity:1;"
         offset="0" /><stop
         id="stop64"
         style="stop-color:#3685ff;stop-opacity:1;"
         offset="1" /></radialGradient><radialGradient
       inkscape:collect="always"
       xlink:href="#turtleneck_2_"
       id="radialGradient3847"
       gradientUnits="userSpaceOnUse"
       gradientTransform="translate(0.3203,-3091.7656)"
       cx="22.7432"
       cy="3139.1426"
       r="13.5363" /><radialGradient
       inkscape:collect="always"
       xlink:href="#body_2_"
       id="radialGradient3850"
       gradientUnits="userSpaceOnUse"
       gradientTransform="matrix(0.9852,0,0,-0.9852,-34.4844,-3031.9851)"
       cx="50.5117"
       cy="-3132.519"
       r="32.887699" /><linearGradient
       inkscape:collect="always"
       xlink:href="#turtleneck_1_"
       id="linearGradient3853"
       gradientUnits="userSpaceOnUse"
       gradientTransform="translate(0.3203,-3091.7656)"
       x1="41.087898"
       y1="3138.3994"
       x2="15.0673"
       y2="3138.3994" /><linearGradient
       inkscape:collect="always"
       xlink:href="#body_1_"
       id="linearGradient3856"
       gradientUnits="userSpaceOnUse"
       gradientTransform="matrix(0.9852,0,0,-0.9852,-34.4844,-3031.9851)"
       x1="95.906303"
       y1="-3134.0396"
       x2="31.5133"
       y2="-3134.0396" /><radialGradient
       inkscape:collect="always"
       xlink:href="#collar_x5F_l_1_"
       id="radialGradient3859"
       gradientUnits="userSpaceOnUse"
       gradientTransform="matrix(1,0,0,-1,0.04,66.1543)"
       cx="19.2178"
       cy="17.916"
       r="9.2842999" /><radialGradient
       inkscape:collect="always"
       xlink:href="#collar_x5F_r_1_"
       id="radialGradient3862"
       gradientUnits="userSpaceOnUse"
       gradientTransform="matrix(1,0,0,-1,0.04,66.1543)"
       cx="31.580099"
       cy="17.957001"
       r="9.2823" /><radialGradient
       inkscape:collect="always"
       xlink:href="#collar_x5F_body_1_"
       id="radialGradient3865"
       gradientUnits="userSpaceOnUse"
       gradientTransform="matrix(1,0,0,-1,0.04,66.1543)"
       cx="15.2412"
       cy="11.9829"
       r="32.400398" /><linearGradient
       inkscape:collect="always"
       xlink:href="#face_highlight_1_"
       id="linearGradient3869"
       gradientUnits="userSpaceOnUse"
       gradientTransform="matrix(0.275,0,0,-0.2733,-1752.8849,-3350.4617)"
       x1="6468.5"
       y1="-12286.859"
       x2="6492.1294"
       y2="-12380.309" /><radialGradient
       inkscape:collect="always"
       xlink:href="#face_x5F_white_1_"
       id="radialGradient3872"
       gradientUnits="userSpaceOnUse"
       gradientTransform="translate(0.3203,-3091.7656)"
       cx="27.5835"
       cy="3117.4922"
       fx="23.013901"
       fy="3115.0024"
       r="23.424999" /><linearGradient
       inkscape:collect="always"
       xlink:href="#SVGID_1_"
       id="linearGradient3875"
       gradientUnits="userSpaceOnUse"
       gradientTransform="translate(0.3203,-3091.7656)"
       x1="26.3398"
       y1="3115.7266"
       x2="27.5807"
       y2="3145.5239" /></defs><sodipodi:namedview
     pagecolor="#ffffff"
     bordercolor="#666666"
     borderopacity="1"
     objecttolerance="10"
     gridtolerance="10"
     guidetolerance="10"
     inkscape:pageopacity="0"
     inkscape:pageshadow="2"
     inkscape:window-width="1918"
     inkscape:window-height="1180"
     id="namedview67"
     showgrid="false"
     fit-margin-top="0"
     fit-margin-left="0"
     fit-margin-right="0"
     fit-margin-bottom="0"
     inkscape:zoom="9.9628179"
     inkscape:cx="20.415299"
     inkscape:cy="28.6106"
     inkscape:window-x="1920"
     inkscape:window-y="18"
     inkscape:window-maximized="0"
     inkscape:current-layer="Ebene_1" /><path
     inkscape:connector-curvature="0"
     style="fill:url(#linearGradient3875);stroke:#ed9135;stroke-miterlimit:10"
     id="path10"
     d="M 49.529,51.225 C 45.133,46.829 38.578,45.341 37.466,45.116 V 37.8 H 19.278 c 0,0 0.038,6.903 0,6.868 0,0 -6.874,0.997 -12.308,6.432 -5.592,5.591 -6.47,11.67 -6.47,11.67 0,1.938 1.575,3.492 3.523,3.492 h 48.51 c 1.947,0 3.521,-1.558 3.521,-3.492 10e-4,-0.002 -1.843,-6.864 -6.525,-11.545 z"
     stroke-miterlimit="10" /><path
     inkscape:connector-curvature="0"
     style="fill:url(#radialGradient3872);stroke:#ed9135;stroke-miterlimit:10"
     d="m 43.676,23.357 c 0.086,10.199 -6.738,18.52 -15.25,18.586 -8.5,0.068 -15.464,-8.146 -15.55,-18.344 C 12.794,13.4 19.618,5.079 28.123,5.012 36.627,4.945 43.59,13.158 43.676,23.357 z"
     stroke-miterlimit="10"
     id="face_x5F_white_3_" /><path
     inkscape:connector-curvature="0"
     style="fill:url(#linearGradient3869)"
     d="m 28.415,5.625 c -6.035,0.047 -10.747,4.493 -12.787,10.386 -0.664,1.919 -0.294,4.043 0.98,5.629 2.73,3.398 5.729,6.283 9.461,8.088 3.137,1.518 7.535,2.385 11.893,1.247 2.274,-0.592 3.988,-2.459 4.375,-4.766 C 42.524,25.115 42.63,23.92 42.62,22.656 42.54,13.244 36.729,5.56 28.415,5.625 z"
     id="face_highlight_3_" /><path
     style="fill:#cc9869;stroke:#99724f;stroke-linecap:round;stroke-linejoin:round"
     inkscape:connector-curvature="0"
     d="M 28.372,0.5 C 17.537,0.5 8.269,7.748 9.153,26.125 9.716,32.688 15.015,38.167 18.519,39.656 15.59,28.688 18.215,14.635 17.934,14.13 c -0.281,-0.505 3.536,6.728 3.536,6.728 l 3.183,-8.312 c 5.541,4.28 0.393,11.309 1.049,11.058 4.26,-1.631 5.34,-9.228 5.34,-9.228 0,0 2.729,3.657 2.701,5.504 -0.054,3.562 2.194,-6.067 2.194,-6.067 l 1.027,2.031 c 6.727,9.822 3.684,16.208 1.648,22.781 15.666,-0.703 12.291,-10.48 9.66,-18.407 C 43.59,6.092 39.206,0.5 28.372,0.5 z"
     id="Hair_Female_1_Brown_4_" /><path
     inkscape:connector-curvature="0"
     style="fill:url(#radialGradient3865);stroke:#e55e03"
     d="m 0.5,62.768 c 0,1.938 1.575,3.494 3.523,3.494 h 48.51 c 1.947,0 3.521,-1.559 3.521,-3.494 0,0 -1.844,-6.861 -6.525,-11.543 -4.815,-4.813 -11.244,-6.146 -11.244,-6.146 -1.771,1.655 -5.61,2.802 -10.063,2.802 -4.453,0 -8.292,-1.146 -10.063,-2.802 0,0 -5.755,0.586 -11.189,6.021 C 1.378,56.689 0.5,62.768 0.5,62.768 z"
     id="collar_x5F_body_2_" /><path
     inkscape:connector-curvature="0"
     style="fill:url(#radialGradient3862);stroke:#e55e03"
     d="m 38.159,41.381 c 0,0 -0.574,2.369 -3.013,4.441 -2.108,1.795 -5.783,2.072 -5.783,2.072 l 3.974,6.217 c 0,0 2.957,-1.637 5.009,-3.848 1.922,-2.072 1.37,-5.479 1.37,-5.479 l -1.557,-3.403 z"
     id="collar_x5F_r_2_" /><path
     inkscape:connector-curvature="0"
     style="fill:url(#radialGradient3859);stroke:#e55e03"
     d="m 18.63,41.422 c 0,0 0.576,2.369 3.012,4.441 2.109,1.793 5.785,2.072 5.785,2.072 l -3.974,6.217 c 0,0 -2.957,-1.637 -5.007,-3.85 -1.922,-2.072 -1.37,-5.48 -1.37,-5.48 l 1.554,-3.4 z"
     id="collar_x5F_l_2_" /><path
     inkscape:connector-curvature="0"
     style="fill:url(#linearGradient3856);stroke:#008d33"
     d="m 0.5,62.768 c 0,1.938 1.575,3.494 3.523,3.494 h 48.51 c 1.947,0 3.521,-1.559 3.521,-3.494 0,0 -1.844,-6.861 -6.525,-11.543 -4.815,-4.813 -11.244,-6.146 -11.244,-6.146 -1.771,1.655 -5.61,2.802 -10.063,2.802 -4.453,0 -8.292,-1.146 -10.063,-2.802 0,0 -5.755,0.586 -11.189,6.021 C 1.378,56.689 0.5,62.768 0.5,62.768 z"
     id="body_15_" /><path
     inkscape:connector-curvature="0"
     style="fill:url(#linearGradient3853);stroke:#008d33"
     d="m 39.715,44.786 -1.557,-3.405 c 0,0 -0.574,2.369 -3.012,4.441 -2.109,1.795 -6.785,2.072 -6.785,2.072 0,0 -4.753,-0.356 -6.722,-2.031 -2.436,-2.072 -3.012,-4.441 -3.012,-4.441 l -1.555,3.404 c 0,0 -0.552,1.404 1.37,3.479 1.025,1.105 5.203,3.611 9.682,3.582 4.479,-0.029 9.264,-2.594 10.218,-3.623 1.924,-2.073 1.373,-3.478 1.373,-3.478 z"
     id="turtleneck_11_" /><path
     inkscape:connector-curvature="0"
     style="fill:url(#radialGradient3850);stroke:#0338e5;stroke-opacity:1"
     d="m 0.5,62.768 c 0,1.938 1.575,3.494 3.523,3.494 h 48.51 c 1.947,0 3.521,-1.559 3.521,-3.494 0,0 -1.844,-6.861 -6.525,-11.543 -4.815,-4.813 -11.244,-6.146 -11.244,-6.146 -1.771,1.655 -5.61,2.802 -10.063,2.802 -4.453,0 -8.292,-1.146 -10.063,-2.802 0,0 -5.755,0.586 -11.189,6.021 C 1.378,56.689 0.5,62.768 0.5,62.768 z"
     id="body_14_" /><path
     inkscape:connector-curvature="0"
     style="fill:url(#radialGradient3847);stroke:#0338e5;stroke-opacity:1"
     d="m 39.715,44.786 -1.557,-3.405 c 0,0 -0.574,2.369 -3.012,4.441 -2.109,1.795 -6.785,2.072 -6.785,2.072 0,0 -4.753,-0.356 -6.722,-2.031 -2.436,-2.072 -3.012,-4.441 -3.012,-4.441 l -1.555,3.404 c 0,0 -0.552,1.404 1.37,3.479 1.025,1.105 5.203,3.611 9.682,3.582 4.479,-0.029 9.264,-2.594 10.218,-3.623 1.924,-2.073 1.373,-3.478 1.373,-3.478 z"
     id="turtleneck_10_" /></svg>