<?xml version="1.0" encoding="UTF-8" standalone="no"?>
<svg
   xmlns:dc="http://purl.org/dc/elements/1.1/"
   xmlns:cc="http://creativecommons.org/ns#"
   xmlns:rdf="http://www.w3.org/1999/02/22-rdf-syntax-ns#"
   xmlns:svg="http://www.w3.org/2000/svg"
   xmlns="http://www.w3.org/2000/svg"
   xmlns:xlink="http://www.w3.org/1999/xlink"
   xmlns:sodipodi="http://sodipodi.sourceforge.net/DTD/sodipodi-0.dtd"
   xmlns:inkscape="http://www.inkscape.org/namespaces/inkscape"
   version="1.1"
   id="Ebene_1"
   x="0px"
   y="0px"
   width="56.554001"
   height="64.518036"
   viewBox="0 0 56.554001 64.518036"
   enable-background="new 0 0 57 65"
   xml:space="preserve"
   inkscape:version="0.48.5 r10040"
   sodipodi:docname="bob.svg"><metadata
     id="metadata90"><rdf:RDF><cc:Work
         rdf:about=""><dc:format>image/svg+xml</dc:format><dc:type
           rdf:resource="http://purl.org/dc/dcmitype/StillImage" /></cc:Work></rdf:RDF></metadata><defs
     id="defs88"><linearGradient
       gradientTransform="translate(0.3203,-3091.7656)"
       y2="3145.5239"
       x2="27.5807"
       y1="3115.7266"
       x1="26.3398"
       gradientUnits="userSpaceOnUse"
       id="SVGID_1_"><stop
         id="stop6"
         style="stop-color:#FFAB4F"
         offset="0.2711" /><stop
         id="stop8"
         style="stop-color:#FFD28F"
         offset="1" /></linearGradient><radialGradient
       gradientUnits="userSpaceOnUse"
       gradientTransform="translate(0.3203,-3091.7656)"
       fy="3115.0024"
       fx="23.013901"
       r="23.424999"
       cy="3117.4922"
       cx="27.5835"
       id="face_x5F_white_1_"><stop
         id="stop13"
         style="stop-color:#FFD28F"
         offset="0" /><stop
         id="stop15"
         style="stop-color:#FFAB4F"
         offset="1" /></radialGradient><linearGradient
       gradientTransform="matrix(0.275,0,0,-0.2733,-1752.8849,-3351.7349)"
       y2="-12384.969"
       x2="6492.1304"
       y1="-12291.52"
       x1="6468.501"
       gradientUnits="userSpaceOnUse"
       id="face_highlight_1_"><stop
         id="stop19"
         style="stop-color:#FFFFFF;stop-opacity:0.24"
         offset="0" /><stop
         id="stop21"
         style="stop-color:#FFFFFF;stop-opacity:0.16"
         offset="1" /></linearGradient><radialGradient
       gradientUnits="userSpaceOnUse"
       gradientTransform="translate(0.3203,-3091.7656)"
       r="32.400398"
       cy="3148.9336"
       cx="14.9609"
       id="collar_x5F_body_1_"><stop
         id="stop27"
         style="stop-color:#B0E8FF"
         offset="0" /><stop
         id="stop29"
         style="stop-color:#74AEEE"
         offset="1" /></radialGradient><radialGradient
       gradientUnits="userSpaceOnUse"
       gradientTransform="translate(0.3203,-3091.7656)"
       r="9.2823"
       cy="3139.0605"
       cx="31.299801"
       id="collar_x5F_r_1_"><stop
         id="stop33"
         style="stop-color:#80CCFF"
         offset="0" /><stop
         id="stop35"
         style="stop-color:#74AEEE"
         offset="1" /></radialGradient><radialGradient
       gradientUnits="userSpaceOnUse"
       gradientTransform="translate(0.3203,-3091.7656)"
       r="9.2842999"
       cy="3139.1016"
       cx="18.9375"
       id="collar_x5F_l_1_"><stop
         id="stop39"
         style="stop-color:#80CCFF"
         offset="0" /><stop
         id="stop41"
         style="stop-color:#74AEEE"
         offset="1" /></radialGradient><radialGradient
       gradientUnits="userSpaceOnUse"
       gradientTransform="translate(0.2402,-2316.8302)"
       r="0.96689999"
       cy="2375.2871"
       cx="27.689501"
       id="Knob2_1_"><stop
         id="stop45"
         style="stop-color:#80CCFF"
         offset="0" /><stop
         id="stop47"
         style="stop-color:#74AEEE"
         offset="1" /></radialGradient><radialGradient
       gradientUnits="userSpaceOnUse"
       gradientTransform="translate(0.2402,-2316.8302)"
       r="0.96689999"
       cy="2381.5283"
       cx="27.727501"
       id="Knob1_1_"><stop
         id="stop51"
         style="stop-color:#80CCFF"
         offset="0" /><stop
         id="stop53"
         style="stop-color:#74AEEE"
         offset="1" /></radialGradient><radialGradient
       gradientUnits="userSpaceOnUse"
       gradientTransform="matrix(1,0,0,-1,0.04,64.1543)"
       r="32.400398"
       cy="9.9828997"
       cx="15.2412"
       id="collar_x5F_body_4_"><stop
         id="stop57"
         style="stop-color:#fc7a7a;stop-opacity:1;"
         offset="0" /><stop
         id="stop59"
         style="stop-color:#ff3636;stop-opacity:1;"
         offset="1" /></radialGradient><radialGradient
       gradientUnits="userSpaceOnUse"
       gradientTransform="matrix(1,0,0,-1,0.04,64.1543)"
       r="9.2823"
       cy="15.957"
       cx="31.580099"
       id="collar_x5F_r_4_"><stop
         id="stop63"
         style="stop-color:#fc7a7a;stop-opacity:1;"
         offset="0" /><stop
         id="stop65"
         style="stop-color:#ff3636;stop-opacity:1;"
         offset="1" /></radialGradient><radialGradient
       gradientUnits="userSpaceOnUse"
       gradientTransform="matrix(1,0,0,-1,0.04,64.1543)"
       r="9.2842999"
       cy="15.916"
       cx="19.2178"
       id="collar_x5F_l_4_"><stop
         id="stop69"
         style="stop-color:#fc7a7a;stop-opacity:1;"
         offset="0" /><stop
         id="stop71"
         style="stop-color:#ff3636;stop-opacity:1;"
         offset="1" /></radialGradient><radialGradient
       gradientUnits="userSpaceOnUse"
       gradientTransform="matrix(1,0,0,-1,0.04,64.1543)"
       r="6.7617002"
       cy="3.0272999"
       cx="26.658701"
       id="path5135_1_"><stop
         id="stop75"
         style="stop-color:#80CCFF"
         offset="0" /><stop
         id="stop77"
         style="stop-color:#74AEEE"
         offset="1" /></radialGradient><radialGradient
       gradientUnits="userSpaceOnUse"
       gradientTransform="matrix(1,0,0,-1,0.04,64.1543)"
       r="4.8471999"
       cy="11.9678"
       cx="26.7456"
       id="path5131_1_"><stop
         id="stop81"
         style="stop-color:#80CCFF"
         offset="0" /><stop
         id="stop83"
         style="stop-color:#74AEEE"
         offset="1" /></radialGradient><radialGradient
       inkscape:collect="always"
       xlink:href="#path5131_1_"
       id="radialGradient3107"
       gradientUnits="userSpaceOnUse"
       gradientTransform="matrix(1,0,0,-1,0.04,64.1543)"
       cx="26.7456"
       cy="11.9678"
       r="4.8471999" /><radialGradient
       inkscape:collect="always"
       xlink:href="#path5135_1_"
       id="radialGradient3110"
       gradientUnits="userSpaceOnUse"
       gradientTransform="matrix(1,0,0,-1,0.04,64.1543)"
       cx="26.658701"
       cy="3.0272999"
       r="6.7617002" /><radialGradient
       inkscape:collect="always"
       xlink:href="#collar_x5F_l_4_"
       id="radialGradient3113"
       gradientUnits="userSpaceOnUse"
       gradientTransform="matrix(1,0,0,-1,0.04,64.1543)"
       cx="19.2178"
       cy="15.916"
       r="9.2842999" /><radialGradient
       inkscape:collect="always"
       xlink:href="#collar_x5F_r_4_"
       id="radialGradient3116"
       gradientUnits="userSpaceOnUse"
       gradientTransform="matrix(1,0,0,-1,0.04,64.1543)"
       cx="31.580099"
       cy="15.957"
       r="9.2823" /><radialGradient
       inkscape:collect="always"
       xlink:href="#collar_x5F_body_4_"
       id="radialGradient3119"
       gradientUnits="userSpaceOnUse"
       gradientTransform="matrix(1,0,0,-1,0.04,64.1543)"
       cx="15.2412"
       cy="9.9828997"
       r="32.400398" /><radialGradient
       inkscape:collect="always"
       xlink:href="#collar_x5F_l_1_"
       id="radialGradient3124"
       gradientUnits="userSpaceOnUse"
       gradientTransform="translate(0.3203,-3091.7656)"
       cx="18.9375"
       cy="3139.1016"
       r="9.2842999" /><radialGradient
       inkscape:collect="always"
       xlink:href="#collar_x5F_r_1_"
       id="radialGradient3127"
       gradientUnits="userSpaceOnUse"
       gradientTransform="translate(0.3203,-3091.7656)"
       cx="31.299801"
       cy="3139.0605"
       r="9.2823" /><radialGradient
       inkscape:collect="always"
       xlink:href="#collar_x5F_body_1_"
       id="radialGradient3130"
       gradientUnits="userSpaceOnUse"
       gradientTransform="translate(0.3203,-3091.7656)"
       cx="14.9609"
       cy="3148.9336"
       r="32.400398" /><linearGradient
       inkscape:collect="always"
       xlink:href="#face_highlight_1_"
       id="linearGradient3135"
       gradientUnits="userSpaceOnUse"
       gradientTransform="matrix(0.275,0,0,-0.2733,-1752.8849,-3351.7349)"
       x1="6468.501"
       y1="-12291.52"
       x2="6492.1304"
       y2="-12384.969" /><radialGradient
       inkscape:collect="always"
       xlink:href="#face_x5F_white_1_"
       id="radialGradient3138"
       gradientUnits="userSpaceOnUse"
       gradientTransform="translate(0.3203,-3091.7656)"
       cx="27.5835"
       cy="3117.4922"
       fx="23.013901"
       fy="3115.0024"
       r="23.424999" /><linearGradient
       inkscape:collect="always"
       xlink:href="#SVGID_1_"
       id="linearGradient3141"
       gradientUnits="userSpaceOnUse"
       gradientTransform="translate(0.3203,-3091.7656)"
       x1="26.3398"
       y1="3115.7266"
       x2="27.5807"
       y2="3145.5239" /></defs><sodipodi:namedview
     pagecolor="#ffffff"
     bordercolor="#666666"
     borderopacity="1"
     objecttolerance="10"
     gridtolerance="10"
     guidetolerance="10"
     inkscape:pageopacity="0"
     inkscape:pageshadow="2"
     inkscape:window-width="1918"
     inkscape:window-height="1180"
     id="namedview86"
     showgrid="false"
     inkscape:zoom="10.269366"
     inkscape:cx="24.180493"
     inkscape:cy="36.324032"
     inkscape:window-x="1920"
     inkscape:window-y="18"
     inkscape:window-maximized="0"
     inkscape:current-layer="Ebene_1"
     fit-margin-top="0"
     fit-margin-left="0"
     fit-margin-right="0"
     fit-margin-bottom="0" /><path
     inkscape:connector-curvature="0"
     style="fill:url(#linearGradient3141);stroke:#ed9135;stroke-miterlimit:10"
     id="path10"
     d="m 49.529,48.981037 c -4.396,-4.396 -10.951,-5.884 -12.063,-6.109 v -7.316 H 19.278 c 0,0 0.038,6.903 0,6.868 0,0 -6.874,0.997 -12.308,6.432 -5.592,5.591 -6.47,11.67 -6.47,11.67 0,1.938 1.575,3.492 3.523,3.492 h 48.51 c 1.947,0 3.521,-1.558 3.521,-3.492 10e-4,-0.002 -1.843,-6.864 -6.525,-11.545 z"
     stroke-miterlimit="10" /><path
     inkscape:connector-curvature="0"
     style="fill:url(#radialGradient3138);stroke:#ed9135;stroke-miterlimit:10"
     d="m 43.676,21.113037 c 0.086,10.2 -4.594946,18.521334 -15.25,18.586 -11.03181,0.06695 -15.464,-8.146 -15.55,-18.344 -0.082,-10.199 6.742,-18.5200002 15.247,-18.5870002 8.504,-0.067 15.467,8.1460002 15.553,18.3450002 z"
     stroke-miterlimit="10"
     id="face_x5F_white_3_"
     sodipodi:nodetypes="sscss" /><path
     inkscape:connector-curvature="0"
     style="fill:url(#linearGradient3135)"
     d="m 28.415,3.3810368 c -6.035,0.047 -10.747,4.493 -12.787,10.3860002 -0.664,1.919 -0.294,4.043 0.98,5.629 2.73,3.398 5.729,6.283 9.461,8.088 3.137,1.518 7.535,2.385 11.893,1.247 2.274,-0.592 3.988,-2.459 4.375,-4.766 0.187,-1.094 0.293,-2.289 0.283,-3.553 -0.08,-9.412 -5.891,-17.0960002 -14.205,-17.0310002 z"
     id="face_highlight_3_" /><path
     style="fill:#cc9869;stroke:#99724f;stroke-linecap:round;stroke-linejoin:round"
     inkscape:connector-curvature="0"
     d="m 20.278,11.006037 c 3.417,4.333 9.333,6.917 9.333,6.917 l -1.417,-3.5 c 0,0 7.094,4.691 8.083,4.333 0.968,-0.2 -1.082,-3.807 -1.082,-3.807 0,0 3.138,1.795 4.854,3.969 1.803,2.28 4.285,3.504 4.285,3.504 0,0 2.693,-21.94700024 -17.045,-21.92200024 C 8.278,0.46503676 12.058,25.434037 12.058,25.434037 l 2.637,-10.678 c 0,0 0.914,5.757 1.399,4.875 1.767,-6.664 2.767,-10.3750002 4.184,-8.625 z"
     id="Hair_Young_Brown_1_" /><path
     style="fill:#fae1aa;stroke:#e2b354;stroke-linecap:round;stroke-linejoin:round"
     inkscape:connector-curvature="0"
     d="m 20.278,11.006037 c 3.417,4.333 9.333,6.917 9.333,6.917 l -1.417,-3.5 c 0,0 7.094,4.691 8.083,4.333 0.968,-0.2 -1.082,-3.807 -1.082,-3.807 0,0 3.138,1.795 4.854,3.969 1.803,2.28 4.285,3.504 4.285,3.504 0,0 2.693,-21.94700024 -17.045,-21.92200024 C 8.278,0.46503676 12.058,25.434037 12.058,25.434037 l 2.637,-10.678 c 0,0 0.914,5.757 1.399,4.875 1.767,-6.664 2.767,-10.3750002 4.184,-8.625 z"
     id="Hair_Young_Blond_1_" /><path
     inkscape:connector-curvature="0"
     style="fill:url(#radialGradient3130);stroke:#5491cf"
     d="m 0.5,60.524037 c 0,1.938 1.575,3.494 3.523,3.494 h 48.51 c 1.947,0 3.521,-1.559 3.521,-3.494 0,0 -1.844,-6.861 -6.525,-11.543 -4.815,-4.813 -11.244,-6.146 -11.244,-6.146 -1.771,1.655 -5.61,2.802 -10.063,2.802 -4.453,0 -8.292,-1.146 -10.063,-2.802 0,0 -5.755,0.586 -11.189,6.021 -5.592,5.589 -6.47,11.668 -6.47,11.668 z"
     id="collar_x5F_body_3_" /><path
     inkscape:connector-curvature="0"
     style="fill:url(#radialGradient3127);stroke:#5491cf"
     d="m 38.159,39.137037 c 0,0 -0.574,2.369 -3.013,4.441 -2.108,1.795 -5.783,2.072 -5.783,2.072 l 3.974,6.217 c 0,0 2.957,-1.637 5.009,-3.848 1.922,-2.072 1.37,-5.479 1.37,-5.479 l -1.557,-3.403 z"
     id="collar_x5F_r_3_" /><path
     inkscape:connector-curvature="0"
     style="fill:url(#radialGradient3124);stroke:#5491cf"
     d="m 18.63,39.178037 c 0,0 0.576,2.369 3.012,4.441 2.109,1.793 5.785,2.072 5.785,2.072 l -3.974,6.217 c 0,0 -2.957,-1.637 -5.007,-3.85 -1.922,-2.072 -1.37,-5.48 -1.37,-5.48 l 1.554,-3.4 z"
     id="collar_x5F_l_3_" /><circle
     sodipodi:ry="0.58399999"
     sodipodi:rx="0.58399999"
     sodipodi:cy="56.254002"
     sodipodi:cx="28.257999"
     style="fill:url(#Knob2_1_);stroke:#5491cf"
     r="0.58399999"
     cy="56.254002"
     cx="28.257999"
     id="Knob2_3_"
     transform="translate(0,-2.2439632)" /><circle
     sodipodi:ry="0.58399999"
     sodipodi:rx="0.58399999"
     sodipodi:cy="62.499001"
     sodipodi:cx="28.297001"
     style="fill:url(#Knob1_1_);stroke:#5491cf"
     r="0.58399999"
     cy="62.499001"
     cx="28.297001"
     id="Knob1_3_"
     transform="translate(0,-2.2439632)" /><path
     inkscape:connector-curvature="0"
     style="fill:url(#radialGradient3119);stroke:#e50303;stroke-opacity:1"
     d="m 0.5,60.524037 c 0,1.938 1.575,3.494 3.523,3.494 h 48.51 c 1.947,0 3.521,-1.559 3.521,-3.494 0,0 -1.844,-6.861 -6.525,-11.543 -4.815,-4.813 -11.244,-6.146 -11.244,-6.146 -1.771,1.655 -5.61,2.802 -10.063,2.802 -4.453,0 -8.292,-1.146 -10.063,-2.802 0,0 -5.755,0.586 -11.189,6.021 -5.592,5.589 -6.47,11.668 -6.47,11.668 z"
     id="collar_x5F_body_2_" /><path
     inkscape:connector-curvature="0"
     style="fill:url(#radialGradient3116);stroke:#e50303;stroke-opacity:1"
     d="m 38.159,39.137037 c 0,0 -0.574,2.369 -3.013,4.441 -2.108,1.795 -5.783,2.072 -5.783,2.072 l 3.974,6.217 c 0,0 2.957,-1.637 5.009,-3.848 1.922,-2.072 1.37,-5.479 1.37,-5.479 l -1.557,-3.403 z"
     id="collar_x5F_r_2_" /><path
     inkscape:connector-curvature="0"
     style="fill:url(#radialGradient3113);stroke:#e50303;stroke-opacity:1"
     d="m 18.63,39.178037 c 0,0 0.576,2.369 3.012,4.441 2.109,1.793 5.785,2.072 5.785,2.072 l -3.974,6.217 c 0,0 -2.957,-1.637 -5.007,-3.85 -1.922,-2.072 -1.37,-5.48 -1.37,-5.48 l 1.554,-3.4 z"
     id="collar_x5F_l_2_" /><path
     inkscape:connector-curvature="0"
     style="fill:url(#radialGradient3110);stroke:#5491cf"
     d="m 27.427,52.977037 c 0,0 -1.848,2.057 -2.079,6.543 -0.231,4.488 0,4.488 0,4.488 h 6.544 c 0,0 0.23,0.063 -0.152,-4.363 -0.399,-4.604 -2.389,-6.668 -2.389,-6.668 h -1.924 z"
     id="path5135_3_" /><path
     inkscape:connector-curvature="0"
     style="fill:url(#radialGradient3107);stroke:#5491cf"
     d="m 28.313,46.436037 h 0.122 l 2.551,4.002 c 0.517,0.953 -1.204,1.797 -1.453,2.549 l -2.279,-0.016 c -0.243,-0.76 -2.257,-1.365 -1.476,-2.584 l 2.535,-3.951 z"
     id="path5131_3_" /></svg>